<svg width="23" height="23" viewBox="0 0 23 23" fill="none" xmlns="http://www.w3.org/2000/svg">
<path d="M6.9637 13.1377L5.59702 19.0557C5.5547 19.2349 5.5674 19.4227 5.63347 19.5945C5.69954 19.7664 5.81591 19.9143 5.96737 20.0191C6.11883 20.1238 6.29834 20.1804 6.48247 20.1814C6.6666 20.1825 6.84677 20.1281 6.99947 20.0252L11.9938 16.6956L16.9881 20.0252C17.1444 20.1289 17.3286 20.1823 17.5161 20.1782C17.7036 20.1741 17.8854 20.1127 18.0369 20.0022C18.1884 19.8917 18.3025 19.7375 18.3638 19.5602C18.425 19.383 18.4306 19.1912 18.3796 19.0107L16.702 13.1404L20.8625 9.39628C20.9958 9.27629 21.091 9.11988 21.1363 8.94638C21.1816 8.77289 21.175 8.58992 21.1174 8.4201C21.0599 8.25029 20.9538 8.10107 20.8123 7.99091C20.6708 7.88075 20.5001 7.81448 20.3214 7.80029L15.0922 7.38386L12.8294 2.37485C12.7573 2.21356 12.64 2.0766 12.4917 1.98049C12.3434 1.88439 12.1705 1.83325 11.9938 1.83325C11.8171 1.83325 11.6442 1.88439 11.4959 1.98049C11.3477 2.0766 11.2304 2.21356 11.1582 2.37485L8.89539 7.38386L3.66624 7.79937C3.49055 7.81329 3.32259 7.87753 3.18245 7.98441C3.04231 8.09128 2.93593 8.23627 2.87603 8.40202C2.81614 8.56777 2.80527 8.74727 2.84471 8.91904C2.88416 9.09081 2.97226 9.24758 3.09847 9.37059L6.9637 13.1377ZM9.58056 9.16972C9.74429 9.15682 9.90152 9.10012 10.0358 9.00555C10.1701 8.91098 10.2764 8.78203 10.3437 8.63222L11.9938 4.98071L13.6439 8.63222C13.7112 8.78203 13.8176 8.91098 13.9518 9.00555C14.0861 9.10012 14.2433 9.15682 14.4071 9.16972L18.0503 9.45865L15.05 12.159C14.7895 12.3938 14.6859 12.7552 14.7813 13.0927L15.9306 17.1148L12.5038 14.83C12.3534 14.729 12.1763 14.6751 11.9952 14.6751C11.814 14.6751 11.637 14.729 11.4866 14.83L7.90569 17.2175L8.86879 13.0478C8.9041 12.8944 8.89936 12.7346 8.85503 12.5836C8.81069 12.4326 8.72825 12.2955 8.61563 12.1856L5.82908 9.46874L9.58056 9.16972Z" fill="#F3CD03"/>
</svg>
