<svg width="23" height="23" viewBox="0 0 23 23" fill="none" xmlns="http://www.w3.org/2000/svg">
<path d="M21.049 8.41939C20.9914 8.24958 20.8853 8.10037 20.7438 7.99018C20.6023 7.87999 20.4316 7.81365 20.2529 7.79934L15.0237 7.38383L12.7609 2.37482C12.6888 2.21349 12.5716 2.07646 12.4234 1.98028C12.2752 1.88409 12.1023 1.83286 11.9256 1.83276C11.7489 1.83267 11.576 1.88371 11.4276 1.97973C11.2793 2.07575 11.162 2.21265 11.0897 2.3739L8.82689 7.38383L3.59774 7.79934C3.42205 7.81326 3.25409 7.8775 3.11395 7.98438C2.97381 8.09125 2.86743 8.23624 2.80754 8.40199C2.74764 8.56774 2.73677 8.74724 2.77622 8.91901C2.81566 9.09078 2.90376 9.24755 3.02997 9.37056L6.89428 13.1376L5.5276 19.0556C5.4861 19.2348 5.4994 19.4222 5.56578 19.5937C5.63215 19.7652 5.74853 19.9128 5.89982 20.0173C6.0511 20.1218 6.23031 20.1785 6.41419 20.1799C6.59806 20.1813 6.77811 20.1274 6.93097 20.0252L11.9253 16.6956L16.9197 20.0252C17.0759 20.1289 17.2601 20.1823 17.4476 20.1782C17.6351 20.1741 17.8169 20.1126 17.9684 20.0022C18.12 19.8917 18.234 19.7374 18.2953 19.5602C18.3566 19.3829 18.3621 19.1912 18.3111 19.0107L16.6335 13.1404L20.794 9.39625C21.0665 9.15043 21.1664 8.76702 21.049 8.41939Z" fill="#F3CD03"/>
</svg>
