<svg width="23" height="23" viewBox="0 0 23 23" fill="none" xmlns="http://www.w3.org/2000/svg">
<path d="M6.96376 13.1377L5.59708 19.0557C5.55476 19.2349 5.56746 19.4227 5.63353 19.5945C5.6996 19.7664 5.81597 19.9143 5.96743 20.0191C6.11889 20.1238 6.29841 20.1804 6.48253 20.1814C6.66666 20.1825 6.84683 20.1281 6.99953 20.0252L11.9939 16.6956L16.9882 20.0252C17.1444 20.1289 17.3287 20.1823 17.5162 20.1782C17.7037 20.1741 17.8854 20.1127 18.037 20.0022C18.1885 19.8917 18.3026 19.7375 18.3638 19.5602C18.4251 19.383 18.4306 19.1912 18.3797 19.0107L16.702 13.1404L20.8626 9.39628C20.9959 9.27629 21.091 9.11988 21.1363 8.94638C21.1816 8.77289 21.1751 8.58992 21.1175 8.4201C21.0599 8.25029 20.9538 8.10107 20.8123 7.99091C20.6709 7.88075 20.5002 7.81448 20.3214 7.80029L15.0923 7.38386L12.8295 2.37485C12.7573 2.21356 12.64 2.0766 12.4918 1.98049C12.3435 1.88439 12.1706 1.83325 11.9939 1.83325C11.8172 1.83325 11.6443 1.88439 11.496 1.98049C11.3477 2.0766 11.2304 2.21356 11.1583 2.37485L8.89545 7.38386L3.6663 7.79937C3.49061 7.81329 3.32265 7.87753 3.18251 7.98441C3.04237 8.09128 2.93599 8.23627 2.8761 8.40202C2.8162 8.56777 2.80533 8.74727 2.84477 8.91904C2.88422 9.09081 2.97232 9.24758 3.09853 9.37059L6.96376 13.1377ZM9.58063 9.16972C9.74435 9.15682 9.90158 9.10012 10.0359 9.00555C10.1701 8.91098 10.2765 8.78203 10.3438 8.63222L11.9939 4.98071L13.644 8.63222C13.7113 8.78203 13.8176 8.91098 13.9519 9.00555C14.0862 9.10012 14.2434 9.15682 14.4071 9.16972L18.0504 9.45865L15.0501 12.159C14.7896 12.3938 14.686 12.7552 14.7813 13.0927L15.9306 17.1148L12.5038 14.83C12.3534 14.729 12.1764 14.6751 11.9952 14.6751C11.8141 14.6751 11.637 14.729 11.4866 14.83L7.90576 17.2175L8.86885 13.0478C8.90416 12.8944 8.89943 12.7346 8.85509 12.5836C8.81075 12.4326 8.72831 12.2955 8.61569 12.1856L5.82914 9.46874L9.58063 9.16972Z" fill="#F3CD03"/>
<path d="M11.4812 1.97973C11.6295 1.88371 11.8025 1.83267 11.9792 1.83276L11.9789 16.6956L6.98451 20.0252C6.83165 20.1274 6.6516 20.1813 6.46773 20.1799C6.28386 20.1785 6.10465 20.1218 5.95336 20.0173C5.80207 19.9128 5.68569 19.7652 5.61932 19.5937C5.55295 19.4222 5.53965 19.2348 5.58115 19.0556L6.94782 13.1376L3.08352 9.37056C2.95731 9.24755 2.86921 9.09078 2.82976 8.91901C2.79031 8.74724 2.80119 8.56774 2.86108 8.40199C2.92098 8.23624 3.02736 8.09125 3.16749 7.98438C3.30763 7.8775 3.47559 7.81326 3.65128 7.79934L8.88044 7.38383L11.1433 2.3739C11.2155 2.21265 11.3329 2.07575 11.4812 1.97973Z" fill="#F3CD03"/>
</svg>
