<svg width="611" height="729" viewBox="0 0 611 729" fill="none" xmlns="http://www.w3.org/2000/svg">
<path d="M556.921 107.442L603.216 253.642L472.732 298.64L526.592 496.22H293.602L347.462 298.73L217.909 253.46L263.995 108.778C265.671 106.605 274.236 109.751 277.379 110.521C321.882 121.499 365.501 136.619 410.074 147.484L556.897 107.465H556.921V107.442Z" fill="white"/>
<path d="M417.684 -40L657.61 -39.2304C657.727 -36.9896 656.423 -35.3372 655.213 -33.6169C626.072 7.75976 589.878 47.1899 560.201 88.5439L426.016 126.955L417.684 127.567V-40Z" fill="white"/>
<path d="M403.905 -40V124.217C403.905 124.941 401.973 127.204 402.462 128.857L261.97 89.3135C230.827 47.9821 196.751 8.32563 166.26 -33.4359C164.817 -35.4277 162.536 -37.4649 162.675 -40H403.905Z" fill="white"/>
<path d="M603.308 173.606C616.482 187.255 629.982 207.196 642.364 222.067C699.832 291.081 756.718 360.073 813.092 429.856L710.4 530.899C708.119 531.532 706.489 526.553 705.907 524.946C688.66 477.503 676.091 427.593 661.078 379.516C641.433 316.636 621.533 255.431 602.074 192.913C599.421 184.38 593.322 175.598 594.859 166.43C596.814 169.486 601.213 171.388 603.331 173.606H603.308Z" fill="white"/>
<path d="M146.939 420.668C135.348 451.859 127.248 488.233 115.377 520.624C114.679 522.502 112.421 529.383 110.932 529.723L8.28549 429.857L228.8 163.761C225.495 174.331 223.168 185.377 219.862 195.948C196.959 269.194 173.497 349.164 146.939 420.69V420.668Z" fill="white"/>
<path d="M316.901 731.987C315.504 732.779 313.339 731.964 312.152 730.878L124.969 546.833L124.643 539.047L168.192 403.712L245.607 531.486L335.987 700.864C336.033 702.675 318.507 731.059 316.877 731.964H316.901V731.987Z" fill="white"/>
<path d="M616.972 624.359C580.475 660.417 543.56 696.429 506.505 732.102C504.55 732.6 504.294 730.879 503.363 729.929C500.965 727.462 488.443 709.082 486.837 705.8C486.045 704.148 484.905 702.744 485.254 700.752C537.019 600.253 591.857 501.361 651.35 405.072L697.343 544.888C670.436 571.28 643.785 597.899 616.995 624.382H616.972V624.359Z" fill="white"/>
<path d="M671.32 -27.9366L811.929 252.239L572.235 99.2492L671.32 -27.9366Z" fill="white"/>
<path d="M260.525 523.023C259.338 523.906 257.127 522.276 256.615 520.805L176.476 382.822C177.593 374.854 180.526 366.321 182.947 358.421C192.42 327.434 203.01 290.358 214.648 260.548C215.277 258.941 215.486 257.334 217.139 256.27C246.513 295.881 279.192 333.229 307.426 373.655L277.516 491.922L260.548 523.023H260.525Z" fill="white"/>
<path d="M563.785 521.688C562.249 522.752 559.921 520.149 559.037 518.971C532.549 483.276 530.198 420.17 514.487 378.59L514.184 373.678C535.342 343.347 559.223 314.668 582.359 285.696C585.734 281.486 589.318 277.343 592.763 273.043C594.742 270.576 601.096 258.239 604.448 258.964L639.222 363.243C640.734 370.237 644.366 376.937 643.76 384.248L563.785 521.688Z" fill="white"/>
<path d="M0 413.107V277.026L236.947 122.723L242.58 120.166L0 413.107Z" fill="white"/>
<path d="M820.215 275.034V413.108L578.961 121.547C580.242 119.351 582.057 122.045 583.244 122.746C650.278 162.788 716.265 210.004 782.275 252.264C794.635 260.186 807.39 267.814 820.215 275.034Z" fill="white"/>
<path d="M485.766 752.765L410.19 827.279L326.886 743.801L346.973 710.686L470.846 710.619C472.592 710.46 473.593 711.003 474.896 712.045C476.619 713.448 492.353 740.361 492.982 742.873C493.796 746.133 488.513 750.705 485.789 752.765H485.766Z" fill="white"/>
<path d="M536.087 512.475C538.717 514.014 547.166 536.423 551.1 540.135V546.179L500.289 644.935L410.817 600.774L536.087 512.475Z" fill="white"/>
<path d="M321.298 644.935L269.369 544.549C268.392 538.981 283.684 519.538 285.36 512.317L409.373 600.118L321.274 644.935H321.298Z" fill="white"/>
<path d="M494.89 653.061L472.615 697.086H349.672C346.74 696.113 329.283 658.969 326.699 653.061H494.89Z" fill="white"/>
<path d="M328.002 307.264L315.666 351.923L312.943 352.76L255.033 281.732L328.002 307.264Z" fill="white"/>
<path d="M566.555 281.732L505.922 352.76C504.874 345.563 491.072 311.587 493.725 307.4L566.555 281.732Z" fill="white"/>
<path d="M150.944 -27.9118L248.912 98.097L8.93844 252.196L150.944 -27.9118Z" fill="white"/>
</svg>
